# xmcd
#
# Track frame offsets: 
#        150
#        17755
#        29145
#        39992
#        53835
#        67220
#        76435
#        89670
#        104317
#        112125
#        121160
#        131687
#        144307
#        157300
#        177330
#        192440
#        204840
#        220915
#
# Disc length: 3118 seconds
#
# Revision: 1
# Processed by: cddbd v1.5PL3 Copyright (c) Steve Scherf et al.
# Submitted via: ExactAudioCopy v0.90b4
#
DISCID=100c2c12
DTITLE=Johnny Cash - All American Country
DYEAR=1996
DGENRE=Country
TTITLE0=Sunday Morning Coming Down
TTITLE1=Get Rhythm
TTITLE2=Cry Cry Cry
TTITLE3=Tennessee Flat Top Box
TTITLE4=I Still Miss Someone
TTITLE5=Blue Train
TTITLE6=Don't Take Your Guns To Town
TTITLE7=Home Of The Blues
TTITLE8=Guess Things Happen That Way
TTITLE9=I Got Stripes
TTITLE10=Hey Porter
TTITLE11=Ballad Of A Teenage Queen
TTITLE12=Wanted Man
TTITLE13=Let Him Roll
TTITLE14=A Backstage Pass
TTITLE15=W. Lee O'Daniel (and the Light Crust Dough Boys)
TTITLE16=The Greatest Cowboy Of Them All
TTITLE17=Ballad Of Ira Hayes
EXTD=
EXTT0=
EXTT1=
EXTT2=
EXTT3=
EXTT4=
EXTT5=
EXTT6=
EXTT7=
EXTT8=
EXTT9=
EXTT10=
EXTT11=
EXTT12=
EXTT13=
EXTT14=
EXTT15=
EXTT16=
EXTT17=
PLAYORDER=
